<?xml version="1.0" ?><svg clip-rule="evenodd" fill-rule="evenodd" image-rendering="optimizeQuality" shape-rendering="geometricPrecision" text-rendering="geometricPrecision" viewBox="0 0 500 500" xmlns="http://www.w3.org/2000/svg"><defs><linearGradient gradientUnits="userSpaceOnUse" id="a" x1="249.901" x2="290.097" y1="289.886" y2="249.692"><stop offset="0" stop-color="#979798"/><stop offset=".412" stop-color="#C5C5C5"/><stop offset=".6" stop-color="#fff"/><stop offset=".722" stop-color="#CDCDCE"/><stop offset="1" stop-color="#787879"/></linearGradient><linearGradient gradientUnits="userSpaceOnUse" id="b" x1="385.356" x2="335.934" y1="335.726" y2="385.148"><stop offset="0" stop-color="#434242"/><stop offset=".478" stop-color="#545454"/><stop offset="1" stop-color="#434242"/></linearGradient><radialGradient cx="165" cy="164.999" fx="165" fy="164.999" gradientUnits="userSpaceOnUse" id="c" r="109.292"><stop offset="0" stop-color="#4EAFFF"/><stop offset=".58" stop-color="#4EAFFF"/><stop offset="1" stop-color="#0076D8"/></radialGradient></defs><g><polygon fill="url(#a)" points="234,269 269,234 302,267 267,302"/><path d="M258 307l2-12 35-35 12-3 143 143c14 14 14 36 0 50-14 13-36 13-49 0l-143-143z" fill="url(#b)"/><circle fill="#434242" r="127" stroke="#2B2A29" stroke-width=".1" transform="matrix(.717 -.717 .717 .717 165 164.999)"/><path d="M88 88c42-43 112-43 154 0 43 42 43 112 0 154-42 43-112 43-154 0-43-42-43-112 0-154z" fill="url(#c)"/><path d="M93 184c-7-25 0-53 19-72 14-14 33-22 53-22" fill="none" stroke="#FEFEFE" stroke-linecap="round" stroke-width="15"/></g></svg>